<?xml version="1.0" encoding="iso-8859-1"?>
<!-- Generator: Adobe Illustrator 19.0.0, SVG Export Plug-In . SVG Version: 6.00 Build 0)  -->
<svg version="1.1" id="Capa_1" xmlns="http://www.w3.org/2000/svg" xmlns:xlink="http://www.w3.org/1999/xlink" x="0px" y="0px"
	 viewBox="0 0 512.001 512.001" style="enable-background:new 0 0 512.001 512.001;" xml:space="preserve">
<g>
	<g>
		<path d="M512,0L395.972,10.238L174.984,231.226l-36.72-36.72l-74.923,74.923l47.61,47.61L0,427.99l84.011,84.011l110.95-110.952
			l47.61,47.61l74.923-74.923l-36.72-36.72l220.988-220.989L512,0z M84.012,469.526L42.476,427.99l36.355-36.355l41.536,41.536
			L84.012,469.526z M141.603,411.934l-41.536-41.536l32.121-32.121l41.537,41.537L141.603,411.934z M242.571,406.184
			L105.816,269.429l32.448-32.448l68.378,68.377l52.895,52.895l15.483,15.482L242.571,406.184z M472.804,102.511L259.538,315.779
			l-21.039-21.039l50.155-50.155l-21.237-21.237l-50.155,50.155l-21.039-21.039L409.489,39.195l69.443-6.127L472.804,102.511z"/>
	</g>
</g>
<g>
</g>
<g>
</g>
<g>
</g>
<g>
</g>
<g>
</g>
<g>
</g>
<g>
</g>
<g>
</g>
<g>
</g>
<g>
</g>
<g>
</g>
<g>
</g>
<g>
</g>
<g>
</g>
<g>
</g>
</svg>
